# xmcd
#
# Track frame offsets:
#	150
#	18444
#	39046
#	56336
#	75914
#	97614
#	118437
#	143958
#	159142
#	175267
#	185896
#	210605
#	231417
#	249336
#	261765
#	280883
#
# Disc length: 3809 seconds
#
# Revision: 1
# Processed by: cddbd v1.5.1PL2 Copyright (c) Steve Scherf et al.
# Submitted via: audiograbber 1.83.01
#
DISCID=ce0edf10
DTITLE=Family - Old Songs New Songs
DYEAR=1969
DGENRE=oddball
TTITLE0=Burlesque
TTITLE1=Bolero Babe
TTITLE2=Coronation
TTITLE3=My Friend The Sun
TTITLE4=Glove
TTITLE5=Ready To Go
TTITLE6=Top Of The Hill
TTITLE7=The Rocking R's
TTITLE8=In My Own Time
TTITLE9=Seasons
TTITLE10=Between Blue And Me
TTITLE11=Sing Em' The Way I Feel
TTITLE12=Sat'd'y Barfly
TTITLE13=Larf and Sing
TTITLE14=Spanish Tide
TTITLE15=Crinkley Grin
EXTD=
EXTT0=
EXTT1=
EXTT2=
EXTT3=
EXTT4=
EXTT5=
EXTT6=
EXTT7=
EXTT8=
EXTT9=
EXTT10=
EXTT11=
EXTT12=
EXTT13=
EXTT14=
EXTT15=
PLAYORDER=
